<svg width="757" height="581" viewBox="0 0 757 581" fill="none" xmlns="http://www.w3.org/2000/svg">
<path opacity="0.0946098" d="M757 393.249V280.751C757 273.763 753.298 267.32 747.275 263.851L650.225 207.602C644.202 204.133 636.798 204.133 630.775 207.602L533.725 263.851C527.702 267.32 524 273.812 524 280.751V393.249C524 400.237 527.702 406.68 533.725 410.149L630.775 466.398C636.798 469.867 644.202 469.867 650.225 466.398L747.275 410.149C753.248 406.68 757 400.188 757 393.249Z" fill="url(#paint0_linear_51_1471)"/>
<path opacity="0.0946098" d="M454 491.872V545.128C454 548.445 455.77 551.464 458.573 553.147L504.402 579.775C507.254 581.408 510.746 581.408 513.598 579.775L559.427 553.147C562.279 551.513 564 548.445 564 545.128V491.872C564 488.555 562.23 485.536 559.427 483.853L513.598 457.225C510.746 455.592 507.254 455.592 504.402 457.225L458.573 483.853C455.77 485.487 454 488.555 454 491.872Z" fill="url(#paint1_linear_51_1471)"/>
<path opacity="0.0946098" d="M481 387.178V155.822C481 141.489 473.34 128.194 460.936 121.028L260.589 5.37489C248.135 -1.79163 232.815 -1.79163 220.411 5.37489L20.0643 121.028C7.66002 128.244 0 141.489 0 155.822V387.178C0 401.511 7.66002 414.806 20.0643 421.972L220.411 537.625C232.815 544.792 248.135 544.792 260.589 537.625L460.936 421.972C473.34 414.806 481 401.511 481 387.178Z" fill="url(#paint2_linear_51_1471)"/>
<defs>
<linearGradient id="paint0_linear_51_1471" x1="640.453" y1="204.911" x2="640.453" y2="469.023" gradientUnits="userSpaceOnUse">
<stop stop-color="#D4145A"/>
<stop offset="1" stop-color="#2E3192"/>
</linearGradient>
<linearGradient id="paint1_linear_51_1471" x1="509.015" y1="581" x2="509.015" y2="455.982" gradientUnits="userSpaceOnUse">
<stop stop-color="#D4145A"/>
<stop offset="1" stop-color="#2E3192"/>
</linearGradient>
<linearGradient id="paint2_linear_51_1471" x1="240.49" y1="0.00627689" x2="240.49" y2="543.02" gradientUnits="userSpaceOnUse">
<stop stop-color="#D4145A"/>
<stop offset="1" stop-color="#2E3192"/>
</linearGradient>
</defs>
</svg>
