<svg width="270" height="60" viewBox="0 0 270 60" fill="none" xmlns="http://www.w3.org/2000/svg">
<path d="M98.5231 15.6597L100.97 2.09369C101.174 1.00382 100.3 0 99.1931 0H53.4605H19.3503C18.7095 0 18.0978 0.344168 17.7774 0.889101L1.23207 29.1109C0.911655 29.6558 0.911655 30.3442 1.23207 30.8891L17.7774 59.0822C18.0978 59.6271 18.7095 59.9713 19.3503 59.9713H42.741H53.4605H89.5805C90.4543 59.9713 91.2117 59.3403 91.3573 58.4799L93.8042 44.7419C94.0081 43.652 93.1342 42.6482 92.0273 42.6482H71.1418C70.0058 42.6482 69.161 41.6444 69.3649 40.5258L69.6562 38.9771C69.8018 38.1166 70.5592 37.5143 71.4331 37.5143H89.6387C90.5126 37.5143 91.27 36.8834 91.4447 36.0229L93.5129 24.3499C93.7168 23.26 92.8429 22.2562 91.7069 22.2562H74.7829C73.6469 22.2562 72.8021 21.2524 72.9769 20.1625L73.2391 18.6138C73.3847 17.7533 74.1421 17.1224 75.0451 17.1224H96.688C97.6201 17.1511 98.3774 16.5201 98.5231 15.6597ZM23.341 49.6463L12.3594 30.8891C12.039 30.3442 12.039 29.6558 12.3594 29.1109L23.341 10.3537C23.6614 9.80879 24.2731 9.46463 24.914 9.46463H46.9064C47.5473 9.46463 48.159 9.80879 48.4794 10.3537L59.461 29.1109C59.7815 29.6558 59.7815 30.3442 59.461 30.8891L48.4794 49.6463C48.159 50.1912 47.5473 50.5354 46.9064 50.5354H24.914C24.244 50.5354 23.6614 50.1912 23.341 49.6463Z" fill="url(#paint0_linear_605_2)"/>
<path d="M130 35.2539L129.174 40H115.902L116.728 35.2539H130ZM122.512 14.4062L118.064 40H112.053L116.482 14.4062H122.512ZM130.141 24.5664L129.35 29.1543H117.783L118.592 24.5664H130.141ZM133.656 14.4062L132.83 19.1699H119.506L120.35 14.4062H133.656ZM142.146 33.7246L150.268 14.4062H157.176L144.783 40H140.301L142.146 33.7246ZM140.441 14.4062L142.586 34.2695L142.516 40H138.227L133.902 14.4062H140.441ZM167.371 20.084L157.949 40H151.287L164.857 14.4062H169.111L167.371 20.084ZM168.988 40L166.387 19.4688L166.527 14.4062H170.535L175.264 40H168.988ZM170.359 30.4551L169.516 35.2188H156.736L157.58 30.4551H170.359ZM181.592 14.4062L191.066 14.4238C192.625 14.4473 194.06 14.7285 195.373 15.2676C196.685 15.8066 197.717 16.6328 198.467 17.7461C199.217 18.8477 199.533 20.2598 199.416 21.9824C199.31 23.4004 198.994 24.5957 198.467 25.5684C197.939 26.5293 197.225 27.3496 196.322 28.0293C195.42 28.709 194.359 29.3125 193.141 29.8398L190.961 30.9648H182.453L183.262 26.2012L189.045 26.2363C189.818 26.2246 190.504 26.0723 191.102 25.7793C191.711 25.4863 192.209 25.0703 192.596 24.5312C192.982 23.9922 193.228 23.3359 193.334 22.5625C193.428 21.9297 193.404 21.3672 193.264 20.875C193.123 20.3711 192.853 19.9727 192.455 19.6797C192.057 19.3867 191.529 19.2227 190.873 19.1875L186.795 19.1699L183.174 40H177.162L181.592 14.4062ZM190.891 40L187.357 28.6797L193.457 28.6445L197.307 39.7012V40H190.891ZM217.855 14.4062H223.867L221.019 31.1055C220.738 33.0625 220.1 34.7383 219.103 36.1328C218.119 37.5273 216.848 38.5879 215.289 39.3145C213.73 40.041 211.967 40.3926 209.998 40.3691C208.17 40.334 206.57 39.9414 205.199 39.1914C203.84 38.4414 202.82 37.3809 202.141 36.0098C201.461 34.6387 201.232 33.0098 201.455 31.123L204.303 14.4062H210.332L207.502 31.1406C207.408 31.9141 207.414 32.6348 207.519 33.3027C207.637 33.9707 207.918 34.5156 208.363 34.9375C208.809 35.3594 209.477 35.582 210.367 35.6055C211.316 35.6406 212.107 35.4648 212.74 35.0781C213.385 34.6914 213.889 34.1523 214.252 33.4609C214.627 32.7695 214.879 31.9902 215.008 31.123L217.855 14.4062ZM245.857 26.3242L244.205 36.8535C243.42 37.7676 242.435 38.4824 241.252 38.998C240.068 39.502 238.826 39.8535 237.525 40.0527C236.236 40.2637 235.023 40.3574 233.887 40.334C232.105 40.3105 230.588 39.959 229.334 39.2793C228.092 38.5996 227.102 37.6797 226.363 36.5195C225.625 35.3594 225.127 34.041 224.869 32.5645C224.611 31.0879 224.582 29.541 224.781 27.9238L224.975 26.5176C225.197 24.8535 225.631 23.2715 226.275 21.7715C226.932 20.2598 227.781 18.918 228.824 17.7461C229.867 16.5742 231.103 15.6543 232.533 14.9863C233.975 14.3184 235.603 14.002 237.42 14.0371C239.307 14.0605 240.906 14.418 242.219 15.1094C243.543 15.7891 244.568 16.7734 245.295 18.0625C246.021 19.3516 246.443 20.9277 246.56 22.791L240.812 22.7734C240.754 22 240.607 21.3203 240.373 20.7344C240.15 20.1367 239.793 19.668 239.301 19.3281C238.809 18.9883 238.135 18.8008 237.279 18.7656C236.248 18.7188 235.369 18.9355 234.643 19.416C233.916 19.8848 233.307 20.5117 232.814 21.2969C232.334 22.082 231.953 22.9316 231.672 23.8457C231.402 24.7598 231.209 25.6328 231.092 26.4648L230.898 27.9414C230.805 28.7266 230.746 29.5586 230.723 30.4375C230.711 31.3164 230.81 32.1426 231.021 32.916C231.232 33.6895 231.613 34.3223 232.164 34.8145C232.727 35.3066 233.529 35.5645 234.572 35.5879C235.029 35.5996 235.469 35.5703 235.891 35.5C236.324 35.4297 236.74 35.3184 237.139 35.166C237.549 35.002 237.941 34.7969 238.316 34.5508L239.107 30.5605H234.941L235.68 26.3242H245.857ZM260.939 33.0742C261.045 32.5234 261.004 32.0547 260.816 31.668C260.641 31.2812 260.371 30.9531 260.008 30.6836C259.656 30.4141 259.252 30.1855 258.795 29.998C258.35 29.7988 257.916 29.6172 257.494 29.4531C256.58 29.0898 255.678 28.6797 254.787 28.2227C253.896 27.7539 253.088 27.2031 252.361 26.5703C251.635 25.9375 251.066 25.1992 250.656 24.3555C250.258 23.5117 250.088 22.5215 250.146 21.3848C250.228 20.084 250.598 18.9648 251.254 18.0273C251.91 17.0898 252.748 16.3281 253.768 15.7422C254.799 15.1445 255.906 14.7109 257.09 14.4414C258.285 14.1602 259.451 14.0313 260.588 14.0547C262.205 14.0781 263.646 14.4062 264.912 15.0391C266.189 15.6719 267.191 16.5801 267.918 17.7637C268.644 18.9355 268.996 20.3535 268.973 22.0176H263.014C263.037 21.3613 262.949 20.793 262.75 20.3125C262.562 19.8203 262.252 19.4395 261.818 19.1699C261.385 18.8887 260.822 18.7422 260.131 18.7305C259.557 18.7188 258.982 18.8125 258.408 19.0117C257.834 19.1992 257.336 19.4922 256.914 19.8906C256.492 20.2891 256.223 20.8047 256.105 21.4375C256.023 21.918 256.1 22.3398 256.334 22.7031C256.568 23.0547 256.891 23.3594 257.301 23.6172C257.711 23.8633 258.139 24.0742 258.584 24.25C259.041 24.4258 259.439 24.5781 259.779 24.707C260.74 25.0703 261.66 25.498 262.539 25.9902C263.43 26.4707 264.215 27.0391 264.894 27.6953C265.586 28.3516 266.113 29.1191 266.477 29.998C266.852 30.8652 267.004 31.873 266.934 33.0215C266.84 34.3457 266.488 35.4766 265.879 36.4141C265.269 37.3516 264.484 38.1133 263.523 38.6992C262.562 39.2852 261.508 39.7129 260.359 39.9824C259.211 40.252 258.045 40.3809 256.861 40.3691C255.537 40.3457 254.301 40.1465 253.152 39.7715C252.004 39.3848 251.002 38.8281 250.146 38.1016C249.291 37.3633 248.629 36.4609 248.16 35.3945C247.691 34.3164 247.469 33.0801 247.492 31.6855L253.521 31.7031C253.486 32.3594 253.527 32.9395 253.644 33.4434C253.773 33.9355 253.984 34.3516 254.277 34.6914C254.582 35.0195 254.975 35.2715 255.455 35.4473C255.935 35.6113 256.516 35.6934 257.195 35.6934C257.769 35.6934 258.32 35.6055 258.848 35.4297C259.387 35.2422 259.844 34.9551 260.219 34.5684C260.594 34.1816 260.834 33.6836 260.939 33.0742Z" fill="black"/>
<defs>
<linearGradient id="paint0_linear_605_2" x1="10.2348" y1="29.9946" x2="211.408" y2="29.9946" gradientUnits="userSpaceOnUse">
<stop stop-color="#B8005F"/>
<stop offset="1" stop-color="#00FFFF"/>
</linearGradient>
</defs>
</svg>
